<svg xmlns="http://www.w3.org/2000/svg" version="1.1" xmlns:xlink="http://www.w3.org/1999/xlink" xmlns:svgjs="http://svgjs.dev/svgjs" width="2000" height="686" viewBox="0 0 2000 686"><g transform="matrix(1,0,0,1,-1.2121212121212466,-1.0064605600304617)"><svg viewBox="0 0 396 136" data-background-color="#ffffff" preserveAspectRatio="xMidYMid meet" height="686" width="2000" xmlns="http://www.w3.org/2000/svg" xmlns:xlink="http://www.w3.org/1999/xlink"><g id="tight-bounds" transform="matrix(1,0,0,1,0.2400000000000091,0.19953153959787073)"><svg viewBox="0 0 395.52 135.60093692080423" height="135.60093692080423" width="395.52"><g><svg viewBox="0 0 397.4975999999999 136.27894160540822" height="135.60093692080423" width="395.52"><g><rect width="397.4975999999999" height="4.174043989003297" x="0" y="74.89291541430241" fill="#2c6435" opacity="1" stroke-width="0" stroke="transparent" fill-opacity="1" class="rect-yte-0" data-fill-palette-color="primary" rx="1%" id="yte-0" data-palette-color="#2c6435"></rect></g><g transform="matrix(1,0,0,1,0.9887999999999693,89.99377612844522)"><svg viewBox="0 0 395.52 46.28516547696301" height="46.28516547696301" width="395.52"><g id="textblocktransform"><svg viewBox="0 0 395.52 46.28516547696301" height="46.28516547696301" width="395.52" id="textblock"><g><svg viewBox="0 0 395.52 46.28516547696301" height="46.28516547696301" width="395.52"><g transform="matrix(1,0,0,1,0,0)"><svg width="395.52" viewBox="8.3 -31.55 231.14 27.05" height="46.28516547696301" data-palette-color="#2c6435"><g class="wordmark-text-0" data-fill-palette-color="primary" id="text-0"><path d="M16.3-5L24.65-5 24.65-4.5 16.3-4.5Q11.45-4.5 9.88-6 8.3-7.5 8.3-10.95L8.3-10.95 8.3-24.95Q8.3-28.5 9.9-30 11.5-31.5 16.3-31.5L16.3-31.5 24.65-31.5 24.65-31 16.3-31Q11.9-31 10.35-29.63 8.8-28.25 8.8-24.95L8.8-24.95 8.8-10.95Q8.8-7.7 10.3-6.35 11.8-5 16.3-5L16.3-5ZM39.9-15.15L39.9-15.15 39.9-13.6 59.4-13.6 59.4-15.15Q59.4-16.5 59.17-17.65 58.95-18.8 58.6-19.8L58.6-19.8 55.15-27.95Q54.6-29.25 54-30.13 53.4-31 52-31L52-31 47.1-31Q45.6-31 45-30.13 44.4-29.25 43.9-28L43.9-28 40.7-19.8Q40.35-18.8 40.12-17.65 39.9-16.5 39.9-15.15ZM59.9-4.5L59.4-4.5 59.4-13.1 39.9-13.1 39.9-4.5 39.4-4.5 39.4-15.15Q39.4-16.55 39.62-17.73 39.85-18.9 40.25-20L40.25-20 43.45-28.2Q44-29.6 44.7-30.55 45.4-31.5 47.1-31.5L47.1-31.5 52-31.5Q53.65-31.5 54.32-30.55 55-29.6 55.6-28.15L55.6-28.15 59.05-20Q59.45-18.9 59.67-17.73 59.9-16.55 59.9-15.15L59.9-15.15 59.9-4.5ZM88.15-31L88.15-31 77.25-31 77.25-16.55 88.15-16.55Q91.25-16.55 92.3-18.05 93.35-19.55 93.35-22.3L93.35-22.3 93.35-25.8Q93.35-28.1 92.07-29.55 90.8-31 88.15-31ZM77.25-16.1L77.25-4.5 76.75-4.5 76.75-31.5 88.15-31.5Q91.05-31.5 92.45-29.88 93.85-28.25 93.85-25.8L93.85-25.8 93.85-22.35Q93.85-20.05 93.25-18.57 92.65-17.1 90.85-16.55L90.85-16.55 91.4-16.55Q94.45-16.55 95.95-15.18 97.45-13.8 97.45-11.2L97.45-11.2 97.45-4.5 96.95-4.5 96.95-11.2Q96.95-13.65 95.6-14.88 94.25-16.1 91.4-16.1L91.4-16.1 77.25-16.1ZM125.29-31L125.29-31 114.39-31 114.39-16.55 125.29-16.55Q128.39-16.55 129.44-18.05 130.49-19.55 130.49-22.3L130.49-22.3 130.49-25.8Q130.49-28.1 129.22-29.55 127.94-31 125.29-31ZM114.39-16.1L114.39-4.5 113.89-4.5 113.89-31.5 125.29-31.5Q128.19-31.5 129.59-29.88 130.99-28.25 130.99-25.8L130.99-25.8 130.99-22.35Q130.99-20.05 130.39-18.57 129.79-17.1 127.99-16.55L127.99-16.55 128.54-16.55Q131.59-16.55 133.09-15.18 134.59-13.8 134.59-11.2L134.59-11.2 134.59-4.5 134.09-4.5 134.09-11.2Q134.09-13.65 132.74-14.88 131.39-16.1 128.54-16.1L128.54-16.1 114.39-16.1ZM151.59-5L167.94-5 167.94-4.5 151.09-4.5 151.09-31.5 167.94-31.5 167.94-31 151.59-31 151.59-18.45 163.89-18.45 163.89-17.95 151.59-17.95 151.59-5ZM184.94-31.1L184.94-31.1 203.34-10.4 203.34-31.5 203.84-31.5 203.84-4.5 203.34-4.5 203.34-9.65 184.44-30.85Q184.39-30.9 184.31-30.95 184.24-31 184.19-31L184.19-31Q184.14-31 184.11-30.95 184.09-30.9 184.09-30.85L184.09-30.85 184.09-4.5 183.59-4.5 183.59-30.95Q183.59-31.25 183.79-31.4 183.99-31.55 184.19-31.55L184.19-31.55Q184.39-31.55 184.54-31.45 184.69-31.35 184.94-31.1ZM229.19-4.5L228.69-4.5 228.69-31 218.44-31 218.44-31.5 239.44-31.5 239.44-31 229.19-31 229.19-4.5Z" fill="#2c6435" data-fill-palette-color="primary"></path></g></svg></g></svg></g></svg></g></svg></g><g transform="matrix(1,0,0,1,112.05051080138924,0)"><svg viewBox="0 0 173.39657839722145 63.966098689162884" height="63.966098689162884" width="173.39657839722145"><g><svg xmlns="http://www.w3.org/2000/svg" xmlns:xlink="http://www.w3.org/1999/xlink" version="1.1" x="0" y="0" viewBox="0.2962725501305952 33.94692138280563 99.40639946256866 36.67107861719437" enable-background="new 0 33.947 100 36.669" xml:space="preserve" id="icon-0" width="173.39657839722145" height="63.966098689162884" class="icon-icon-0" data-fill-palette-color="accent"><g fill="#2c6435" data-fill-palette-color="accent"><path d="M15.524 55.357A7.631 7.631 0 0 0 15.524 70.618 7.631 7.631 0 0 0 15.524 55.357M15.524 66.189A3.22 3.22 0 1 1 15.526 59.747 3.22 3.22 0 0 1 15.524 66.189" fill="#2c6435" data-fill-palette-color="accent"></path><path d="M82.53 55.355A7.63 7.63 0 0 0 74.898 62.984 7.632 7.632 0 0 0 90.16 62.984 7.63 7.63 0 0 0 82.53 55.355M82.53 66.189A3.222 3.222 0 1 1 85.753 62.969 3.22 3.22 0 0 1 82.53 66.189" fill="#2c6435" data-fill-palette-color="accent"></path><path d="M78.23 44.515S59.466 35.765 53.476 34.497C47.489 33.229 26.879 34.382 24.922 35.648L13.407 41.288 2.125 46.815 0.298 57.465S0.248 63.783 0.686 65.238H6.213L6.284 62.988C6.284 57.885 10.422 53.748 15.527 53.748 20.63 53.748 24.765 57.886 24.765 62.988L24.923 65.238H73.282L73.289 62.408C73.289 57.305 77.145 53.538 82.248 53.538S91.771 57.306 91.771 62.408L91.961 65.024S97.806 65.354 99.649 64.663C99.649 64.663 100.339 54.876 96.771 51.306 93.603 48.308 87.213 46.44 78.23 44.515M25.956 45.896S28.319 40.886 30.899 38.972C32.81 37.345 43.345 37.389 43.345 37.389L43.734 47.104zM71.613 48.198L46.915 47.22 46.338 37.374C55.492 37.03 65.914 41.923 71.901 45.434 77.89 48.946 71.613 48.198 71.613 48.198" fill="#2c6435" data-fill-palette-color="accent"></path></g></svg></g></svg></g><g></g></svg></g><defs></defs></svg><rect width="395.52" height="135.60093692080423" fill="none" stroke="none" visibility="hidden"></rect></g></svg></g></svg>